<svg width="590" height="55" viewBox="0 0 590 55" fill="none" xmlns="http://www.w3.org/2000/svg">
<path d="M9.84411 53.37H0.000355173L17.9229 2.4609H29.3079L47.2553 53.37H37.4116L23.8143 12.9012H23.4165L9.84411 53.37ZM10.1673 33.4091H37.0139V40.8167H10.1673V33.4091ZM62.5616 30.9978V53.37H53.563V2.4609H62.3627V21.6761H62.8102C63.7051 19.5217 65.0888 17.8231 66.9615 16.5802C68.8507 15.3208 71.2536 14.691 74.1703 14.691C76.8218 14.691 79.1336 15.2462 81.1056 16.3565C83.0777 17.4668 84.6023 19.0909 85.6795 21.2287C86.7733 23.3664 87.3201 25.9765 87.3201 29.0589V53.37H78.3216V30.451C78.3216 27.8823 77.6587 25.8854 76.3329 24.4602C75.0237 23.0184 73.1842 22.2976 70.8145 22.2976C69.2235 22.2976 67.7984 22.6456 66.5389 23.3416C65.296 24.021 64.3182 25.0071 63.6056 26.2997C62.9096 27.5923 62.5616 29.1583 62.5616 30.9978ZM107.48 54.1406C105.06 54.1406 102.881 53.7097 100.942 52.848C99.0199 51.9697 97.4953 50.677 96.3684 48.9701C95.2581 47.2632 94.7029 45.1586 94.7029 42.6562C94.7029 40.5019 95.1007 38.7204 95.8961 37.3118C96.6916 35.9031 97.777 34.7762 99.1525 33.9311C100.528 33.0859 102.077 32.4479 103.801 32.017C105.541 31.5696 107.339 31.2464 109.195 31.0476C111.432 30.8155 113.247 30.6084 114.639 30.4261C116.031 30.2272 117.042 29.9289 117.672 29.5312C118.318 29.1169 118.641 28.4789 118.641 27.6172V27.468C118.641 25.5954 118.086 24.1453 116.976 23.1179C115.865 22.0904 114.266 21.5767 112.178 21.5767C109.974 21.5767 108.226 22.0573 106.933 23.0184C105.657 23.9796 104.795 25.1148 104.348 26.424L95.9458 25.2308C96.6087 22.9107 97.7025 20.9718 99.2271 19.414C100.752 17.8397 102.616 16.6631 104.82 15.8842C107.024 15.0887 109.46 14.691 112.128 14.691C113.968 14.691 115.799 14.9065 117.622 15.3373C119.445 15.7682 121.11 16.4808 122.618 17.4751C124.126 18.4529 125.336 19.7869 126.248 21.4772C127.176 23.1676 127.64 25.2805 127.64 27.816V53.37H118.989V48.125H118.691C118.144 49.1856 117.373 50.1799 116.379 51.1079C115.401 52.0194 114.167 52.7568 112.675 53.3203C111.2 53.8672 109.469 54.1406 107.48 54.1406ZM109.817 47.5284C111.623 47.5284 113.189 47.1721 114.515 46.4595C115.84 45.7303 116.86 44.7691 117.572 43.576C118.301 42.3828 118.666 41.0819 118.666 39.6733V35.174C118.384 35.406 117.904 35.6214 117.224 35.8203C116.561 36.0191 115.816 36.1931 114.987 36.3423C114.158 36.4914 113.338 36.624 112.526 36.74C111.714 36.856 111.01 36.9555 110.413 37.0383C109.071 37.2206 107.869 37.5189 106.809 37.9332C105.748 38.3475 104.911 38.9275 104.298 39.6733C103.685 40.4024 103.378 41.347 103.378 42.5071C103.378 44.1643 103.983 45.4154 105.193 46.2606C106.403 47.1058 107.944 47.5284 109.817 47.5284ZM155.754 15.1882V22.1484H133.805V15.1882H155.754ZM139.224 6.04045H148.222V41.8856C148.222 43.0954 148.404 44.0234 148.769 44.6697C149.15 45.2994 149.647 45.7303 150.26 45.9623C150.874 46.1943 151.553 46.3103 152.299 46.3103C152.862 46.3103 153.376 46.2689 153.84 46.186C154.321 46.1032 154.685 46.0286 154.934 45.9623L156.45 52.9971C155.97 53.1628 155.282 53.3451 154.387 53.544C153.509 53.7429 152.431 53.8589 151.155 53.892C148.902 53.9583 146.872 53.6186 145.065 52.8728C143.259 52.1105 141.825 50.9339 140.765 49.343C139.721 47.7521 139.207 45.7635 139.224 43.3771V6.04045ZM179.773 54.1157C175.945 54.1157 172.639 53.3203 169.855 51.7294C167.087 50.1219 164.958 47.8515 163.466 44.9183C161.975 41.9685 161.229 38.4967 161.229 34.5028C161.229 30.5753 161.975 27.1283 163.466 24.1619C164.974 21.1789 167.079 18.8589 169.78 17.2017C172.481 15.5279 175.655 14.691 179.301 14.691C181.654 14.691 183.875 15.0722 185.963 15.8345C188.067 16.5802 189.923 17.7403 191.531 19.3146C193.155 20.8889 194.431 22.8941 195.359 25.3302C196.287 27.7497 196.751 30.6333 196.751 33.9808V36.74H165.455V30.6747H188.125C188.109 28.9512 187.736 27.4183 187.007 26.076C186.278 24.7171 185.258 23.6482 183.949 22.8693C182.657 22.0904 181.149 21.701 179.425 21.701C177.586 21.701 175.97 22.1484 174.578 23.0433C173.186 23.9216 172.1 25.0816 171.321 26.5234C170.559 27.9486 170.17 29.5146 170.153 31.2216V36.5163C170.153 38.7369 170.559 40.6427 171.371 42.2336C172.183 43.808 173.318 45.0177 174.777 45.8629C176.235 46.6915 177.942 47.1058 179.897 47.1058C181.207 47.1058 182.391 46.9235 183.452 46.5589C184.513 46.1778 185.432 45.6226 186.211 44.8934C186.99 44.1643 187.578 43.2611 187.976 42.1839L196.378 43.1285C195.848 45.3492 194.837 47.2881 193.346 48.9453C191.871 50.5859 189.981 51.8619 187.678 52.7734C185.374 53.6683 182.739 54.1157 179.773 54.1157ZM234.541 25.2805L226.338 26.1754C226.106 25.3468 225.7 24.5679 225.12 23.8387C224.557 23.1096 223.794 22.5213 222.833 22.0738C221.872 21.6264 220.695 21.4027 219.303 21.4027C217.431 21.4027 215.856 21.8087 214.58 22.6207C213.321 23.4327 212.7 24.4851 212.716 25.7777C212.7 26.888 213.106 27.7912 213.934 28.4872C214.779 29.1832 216.171 29.7549 218.11 30.2024L224.623 31.5944C228.236 32.3733 230.92 33.6079 232.677 35.2983C234.45 36.9886 235.345 39.201 235.362 41.9353C235.345 44.3383 234.641 46.4595 233.249 48.299C231.873 50.1219 229.959 51.5471 227.507 52.5745C225.054 53.602 222.237 54.1157 219.055 54.1157C214.382 54.1157 210.62 53.138 207.769 51.1825C204.919 49.2104 203.22 46.4678 202.673 42.9545L211.448 42.1093C211.846 43.8328 212.691 45.1337 213.984 46.012C215.276 46.8904 216.959 47.3295 219.03 47.3295C221.168 47.3295 222.883 46.8904 224.176 46.012C225.485 45.1337 226.139 44.0483 226.139 42.7556C226.139 41.6619 225.717 40.7587 224.872 40.0461C224.043 39.3335 222.75 38.7867 220.994 38.4055L214.481 37.0383C210.819 36.276 208.109 34.9917 206.352 33.1853C204.596 31.3624 203.726 29.0589 203.742 26.2748C203.726 23.9216 204.364 21.8833 205.656 20.1598C206.966 18.4197 208.78 17.0774 211.1 16.1328C213.437 15.1716 216.13 14.691 219.179 14.691C223.654 14.691 227.175 15.6439 229.744 17.5497C232.329 19.4555 233.928 22.0324 234.541 25.2805ZM251.78 30.9978V53.37H242.782V2.4609H251.581V21.6761H252.029C252.924 19.5217 254.308 17.8231 256.18 16.5802C258.069 15.3208 260.472 14.691 263.389 14.691C266.041 14.691 268.352 15.2462 270.324 16.3565C272.296 17.4668 273.821 19.0909 274.898 21.2287C275.992 23.3664 276.539 25.9765 276.539 29.0589V53.37H267.54V30.451C267.54 27.8823 266.877 25.8854 265.552 24.4602C264.242 23.0184 262.403 22.2976 260.033 22.2976C258.442 22.2976 257.017 22.6456 255.758 23.3416C254.515 24.021 253.537 25.0071 252.824 26.2997C252.128 27.5923 251.78 29.1583 251.78 30.9978ZM296.699 54.1406C294.279 54.1406 292.1 53.7097 290.161 52.848C288.239 51.9697 286.714 50.677 285.587 48.9701C284.477 47.2632 283.922 45.1586 283.922 42.6562C283.922 40.5019 284.319 38.7204 285.115 37.3118C285.91 35.9031 286.996 34.7762 288.371 33.9311C289.747 33.0859 291.296 32.4479 293.02 32.017C294.76 31.5696 296.558 31.2464 298.414 31.0476C300.651 30.8155 302.466 30.6084 303.858 30.4261C305.25 30.2272 306.261 29.9289 306.89 29.5312C307.537 29.1169 307.86 28.4789 307.86 27.6172V27.468C307.86 25.5954 307.305 24.1453 306.194 23.1179C305.084 22.0904 303.485 21.5767 301.397 21.5767C299.193 21.5767 297.444 22.0573 296.152 23.0184C294.876 23.9796 294.014 25.1148 293.567 26.424L285.165 25.2308C285.827 22.9107 286.921 20.9718 288.446 19.414C289.97 17.8397 291.835 16.6631 294.039 15.8842C296.243 15.0887 298.679 14.691 301.347 14.691C303.187 14.691 305.018 14.9065 306.841 15.3373C308.664 15.7682 310.329 16.4808 311.837 17.4751C313.345 18.4529 314.555 19.7869 315.466 21.4772C316.394 23.1676 316.858 25.2805 316.858 27.816V53.37H308.208V48.125H307.91C307.363 49.1856 306.592 50.1799 305.598 51.1079C304.62 52.0194 303.385 52.7568 301.894 53.3203C300.419 53.8672 298.687 54.1406 296.699 54.1406ZM299.035 47.5284C300.842 47.5284 302.408 47.1721 303.733 46.4595C305.059 45.7303 306.078 44.7691 306.791 43.576C307.52 42.3828 307.885 41.0819 307.885 39.6733V35.174C307.603 35.406 307.122 35.6214 306.443 35.8203C305.78 36.0191 305.034 36.1931 304.206 36.3423C303.377 36.4914 302.557 36.624 301.745 36.74C300.933 36.856 300.229 36.9555 299.632 37.0383C298.29 37.2206 297.088 37.5189 296.028 37.9332C294.967 38.3475 294.13 38.9275 293.517 39.6733C292.904 40.4024 292.597 41.347 292.597 42.5071C292.597 44.1643 293.202 45.4154 294.412 46.2606C295.622 47.1058 297.163 47.5284 299.035 47.5284ZM325.907 53.37V15.1882H334.508V21.6761H334.955C335.751 19.4886 337.068 17.7817 338.907 16.5554C340.747 15.3125 342.943 14.691 345.495 14.691C348.08 14.691 350.259 15.3208 352.032 16.5802C353.822 17.8231 355.082 19.5217 355.811 21.6761H356.209C357.054 19.5549 358.479 17.8645 360.484 16.6051C362.506 15.329 364.901 14.691 367.668 14.691C371.181 14.691 374.048 15.8013 376.269 18.022C378.49 20.2426 379.6 23.4824 379.6 27.7414V53.37H370.577V29.1335C370.577 26.7637 369.947 25.0319 368.687 23.9382C367.428 22.8279 365.887 22.2727 364.064 22.2727C361.893 22.2727 360.194 22.9521 358.968 24.311C357.758 25.6534 357.153 27.4017 357.153 29.5561V53.37H348.329V28.7606C348.329 26.7886 347.732 25.2142 346.539 24.0376C345.362 22.861 343.821 22.2727 341.915 22.2727C340.623 22.2727 339.446 22.6041 338.385 23.267C337.325 23.9133 336.48 24.8331 335.85 26.0262C335.22 27.2029 334.905 28.5783 334.905 30.1527V53.37H325.907ZM406.49 53.37V2.4609H425.581C429.492 2.4609 432.773 3.14035 435.425 4.49925C438.093 5.85816 440.106 7.76393 441.465 10.2166C442.841 12.6527 443.528 15.4948 443.528 18.7429C443.528 22.0075 442.832 24.8413 441.44 27.2443C440.065 29.6306 438.035 31.4784 435.35 32.7876C432.665 34.0802 429.368 34.7265 425.457 34.7265H411.859V27.0703H424.214C426.501 27.0703 428.373 26.7554 429.832 26.1257C431.29 25.4794 432.367 24.5431 433.063 23.3167C433.776 22.0738 434.132 20.5492 434.132 18.7429C434.132 16.9365 433.776 15.3953 433.063 14.1193C432.351 12.8267 431.265 11.8489 429.807 11.186C428.348 10.5066 426.468 10.1669 424.164 10.1669H415.712V53.37H406.49ZM432.79 30.3018L445.393 53.37H435.102L422.722 30.3018H432.79ZM462.607 54.1406C460.187 54.1406 458.008 53.7097 456.069 52.848C454.147 51.9697 452.622 50.677 451.495 48.9701C450.385 47.2632 449.83 45.1586 449.83 42.6562C449.83 40.5019 450.228 38.7204 451.023 37.3118C451.819 35.9031 452.904 34.7762 454.279 33.9311C455.655 33.0859 457.204 32.4479 458.928 32.017C460.668 31.5696 462.466 31.2464 464.322 31.0476C466.559 30.8155 468.374 30.6084 469.766 30.4261C471.158 30.2272 472.169 29.9289 472.799 29.5312C473.445 29.1169 473.768 28.4789 473.768 27.6172V27.468C473.768 25.5954 473.213 24.1453 472.103 23.1179C470.992 22.0904 469.393 21.5767 467.305 21.5767C465.101 21.5767 463.353 22.0573 462.06 23.0184C460.784 23.9796 459.922 25.1148 459.475 26.424L451.073 25.2308C451.736 22.9107 452.829 20.9718 454.354 19.414C455.879 17.8397 457.743 16.6631 459.947 15.8842C462.151 15.0887 464.587 14.691 467.255 14.691C469.095 14.691 470.926 14.9065 472.749 15.3373C474.572 15.7682 476.237 16.4808 477.745 17.4751C479.253 18.4529 480.463 19.7869 481.375 21.4772C482.303 23.1676 482.767 25.2805 482.767 27.816V53.37H474.116V48.125H473.818C473.271 49.1856 472.5 50.1799 471.506 51.1079C470.528 52.0194 469.294 52.7568 467.802 53.3203C466.327 53.8672 464.596 54.1406 462.607 54.1406ZM464.944 47.5284C466.75 47.5284 468.316 47.1721 469.642 46.4595C470.967 45.7303 471.987 44.7691 472.699 43.576C473.428 42.3828 473.793 41.0819 473.793 39.6733V35.174C473.511 35.406 473.031 35.6214 472.351 35.8203C471.688 36.0191 470.943 36.1931 470.114 36.3423C469.285 36.4914 468.465 36.624 467.653 36.74C466.841 36.856 466.137 36.9555 465.54 37.0383C464.198 37.2206 462.996 37.5189 461.936 37.9332C460.875 38.3475 460.038 38.9275 459.425 39.6733C458.812 40.4024 458.505 41.347 458.505 42.5071C458.505 44.1643 459.11 45.4154 460.32 46.2606C461.53 47.1058 463.071 47.5284 464.944 47.5284ZM492.213 53.37V2.4609H501.211V21.5021H501.584C502.048 20.5741 502.703 19.588 503.548 18.544C504.393 17.4834 505.537 16.5802 506.978 15.8345C508.42 15.0722 510.26 14.691 512.497 14.691C515.447 14.691 518.106 15.445 520.476 16.9531C522.863 18.4446 524.752 20.6569 526.144 23.5902C527.552 26.5068 528.257 30.0864 528.257 34.3288C528.257 38.5215 527.569 42.0845 526.194 45.0177C524.818 47.951 522.945 50.1882 520.576 51.7294C518.206 53.2706 515.521 54.0412 512.522 54.0412C510.334 54.0412 508.52 53.6766 507.078 52.9474C505.636 52.2182 504.476 51.3399 503.598 50.3125C502.736 49.2684 502.065 48.2824 501.584 47.3544H501.062V53.37H492.213ZM501.037 34.2791C501.037 36.7483 501.385 38.911 502.081 40.767C502.794 42.6231 503.813 44.0731 505.139 45.1172C506.481 46.1446 508.105 46.6583 510.011 46.6583C512 46.6583 513.665 46.128 515.007 45.0674C516.35 43.9903 517.361 42.5236 518.04 40.6676C518.736 38.7949 519.084 36.6654 519.084 34.2791C519.084 31.9093 518.744 29.8047 518.065 27.9652C517.386 26.1257 516.375 24.6839 515.032 23.6399C513.69 22.5958 512.016 22.0738 510.011 22.0738C508.089 22.0738 506.456 22.5793 505.114 23.5902C503.772 24.6011 502.752 26.018 502.056 27.8409C501.377 29.6638 501.037 31.8099 501.037 34.2791ZM536.305 53.37V2.4609H545.303V21.5021H545.676C546.14 20.5741 546.795 19.588 547.64 18.544C548.485 17.4834 549.628 16.5802 551.07 15.8345C552.512 15.0722 554.351 14.691 556.589 14.691C559.538 14.691 562.198 15.445 564.568 16.9531C566.954 18.4446 568.844 20.6569 570.236 23.5902C571.644 26.5068 572.349 30.0864 572.349 34.3288C572.349 38.5215 571.661 42.0845 570.285 45.0177C568.91 47.951 567.037 50.1882 564.667 51.7294C562.298 53.2706 559.613 54.0412 556.613 54.0412C554.426 54.0412 552.611 53.6766 551.17 52.9474C549.728 52.2182 548.568 51.3399 547.689 50.3125C546.828 49.2684 546.157 48.2824 545.676 47.3544H545.154V53.37H536.305ZM545.129 34.2791C545.129 36.7483 545.477 38.911 546.173 40.767C546.886 42.6231 547.905 44.0731 549.231 45.1172C550.573 46.1446 552.197 46.6583 554.103 46.6583C556.091 46.6583 557.757 46.128 559.099 45.0674C560.442 43.9903 561.452 42.5236 562.132 40.6676C562.828 38.7949 563.176 36.6654 563.176 34.2791C563.176 31.9093 562.836 29.8047 562.157 27.9652C561.477 26.1257 560.466 24.6839 559.124 23.6399C557.782 22.5958 556.108 22.0738 554.103 22.0738C552.18 22.0738 550.548 22.5793 549.206 23.5902C547.863 24.6011 546.844 26.018 546.148 27.8409C545.469 29.6638 545.129 31.8099 545.129 34.2791ZM579.999 53.37V15.1882H588.997V53.37H579.999ZM584.523 9.76914C583.098 9.76914 581.871 9.29684 580.844 8.35224C579.816 7.39106 579.303 6.23931 579.303 4.89698C579.303 3.53808 579.816 2.38633 580.844 1.44172C581.871 0.480552 583.098 -3.48091e-05 584.523 -3.48091e-05C585.964 -3.48091e-05 587.191 0.480552 588.202 1.44172C589.229 2.38633 589.743 3.53808 589.743 4.89698C589.743 6.23931 589.229 7.39106 588.202 8.35224C587.191 9.29684 585.964 9.76914 584.523 9.76914Z" fill="black"/>
</svg>
